<?xml version="1.0" standalone="no"?>
<!DOCTYPE svg PUBLIC "-//W3C//DTD SVG 20010904//EN"
 "http://www.w3.org/TR/2001/REC-SVG-20010904/DTD/svg10.dtd">
<svg version="1.0" xmlns="http://www.w3.org/2000/svg"
 width="300.000000pt" height="300.000000pt" viewBox="0 0 300.000000 300.000000"
 preserveAspectRatio="xMidYMid meet">
<metadata>
Created by potrace 1.11, written by Peter Selinger 2001-2013
</metadata>
<g transform="translate(0.000000,300.000000) scale(0.100000,-0.100000)"
fill="#000000" stroke="none">
<path d="M0 1500 l0 -1500 1500 0 1500 0 0 1500 0 1500 -1500 0 -1500 0 0
-1500z m530 398 l0 -273 268 273 267 273 150 -1 150 0 -293 -293 -293 -293
282 -304 c154 -168 297 -322 317 -342 l36 -38 -160 0 -160 0 -279 317 -280
317 -3 -317 -2 -317 -115 0 -115 0 0 635 0 635 115 0 115 0 0 -272z m1621
-195 l304 -468 3 468 2 467 115 0 115 0 0 -635 0 -635 -144 0 -144 0 -313 487
-314 487 -3 -487 -2 -487 -115 0 -115 0 0 635 0 635 153 0 153 0 305 -467z"/>
</g>
</svg>
